<svg t="1636452174038" class="icon" viewBox="0 0 1024 1024" version="1.1" xmlns="http://www.w3.org/2000/svg" p-id="19185" width="200" height="200"><path d="M790.048 941.184c-16.256 0-26.88-14.816-30.24-29.504l-8.064-32.32a166.752 166.752 0 0 1-23.136-9.696l-29.184 18.624a38.912 38.912 0 0 1-21.824 6.688 30.016 30.016 0 0 1-21.408-8.416l-18.88-18.88c-11.488-11.488-8.544-29.504-0.544-42.272l18.528-30.912a159.616 159.616 0 0 1-7.52-18.176l-32.864-8.224c-14.624-3.328-29.44-13.984-29.44-30.208v-26.752c0-16.544 15.008-29.184 29.504-31.744l32.192-7.136c2.048-6.304 4.768-12.8 8.16-19.808l-18.592-30.976c-7.36-11.744-11.68-30.016 0.544-42.208l18.944-18.912a29.984 29.984 0 0 1 21.408-8.352c7.776 0 15.744 2.496 21.952 6.72l28.96 18.496c7.392-3.776 15.104-6.976 22.976-9.632l8.096-32.416c3.36-14.656 14.016-29.44 30.208-29.44h26.784c16.576 0 29.12 14.976 31.808 29.472l7.2 32.608c7.296 2.496 14.336 5.472 21.28 8.992l28.416-18.144c6.016-4.16 13.984-6.656 21.728-6.656 8.608 0 16 2.88 21.44 8.352l18.944 18.912c12.256 12.288 7.904 30.464 0.512 42.272l-17.504 29.248a156.8 156.8 0 0 1 8.832 21.472l32.448 7.136c14.336 2.56 29.312 15.232 29.312 31.744v26.752c0 16.256-14.848 26.912-29.536 30.24l-32.832 8.192a155.84 155.84 0 0 1-8.288 19.808l17.6 29.376c8 12.672 10.944 30.688-0.544 42.176l-18.944 18.944a30.144 30.144 0 0 1-21.44 8.352c-7.744 0-15.68-2.464-21.856-6.784l-28.384-18.048a157.568 157.568 0 0 1-20.96 8.8l-7.296 32.864c-2.56 14.368-15.168 29.344-31.68 29.344h-26.816v0.032z m26.784-28.544a11.392 11.392 0 0 0 3.616-5.984l10.56-47.872a3.648 3.648 0 0 1 2.368-2.56l11.712-3.776a143.04 143.04 0 0 0 20.384-8.576l10.976-5.76a4.096 4.096 0 0 1 1.632-0.416c0.672 0 1.344 0.256 1.952 0.576l41.344 26.496c1.472 0.96 3.744 1.664 5.632 1.664a6.272 6.272 0 0 0 1.568-0.192l17.92-18.016a17.024 17.024 0 0 0-2.784-7.648l-24.928-41.6a3.52 3.52 0 0 1-0.128-3.456l5.408-10.56c3.232-6.368 5.984-12.992 8.064-19.36l3.68-11.296a3.84 3.84 0 0 1 2.528-2.336l46.272-11.552a18.08 18.08 0 0 0 7.808-3.52v-25.728a11.36 11.36 0 0 0-6.016-3.68l-0.8-0.128-46.592-10.336a3.84 3.84 0 0 1-2.688-2.368l-3.616-11.936a138.112 138.112 0 0 0-8.672-20.672l-5.408-10.56a3.584 3.584 0 0 1 0.128-3.488l24.704-41.088a18.496 18.496 0 0 0 3.008-8.096l-18.208-18.176c0.096 0.096 0.064 0.096-0.128 0.096l-1.12-0.064a11.136 11.136 0 0 0-5.632 1.632s-0.736 0.512-0.736 0.608l-40.544 25.792a3.36 3.36 0 0 1-3.616 0.16l-10.944-5.696a134.816 134.816 0 0 0-20.672-8.672l-11.648-3.776a3.488 3.488 0 0 1-2.368-2.592l-10.368-46.72-0.224-0.992a10.208 10.208 0 0 0-4-6.048l-25.376 0.064a17.856 17.856 0 0 0-3.456 7.36l-11.52 46.368a3.648 3.648 0 0 1-2.4 2.528l-11.36 3.648c-7.328 2.304-14.752 5.44-22.016 9.248l-11.008 5.824a3.456 3.456 0 0 1-1.696 0.352 3.552 3.552 0 0 1-1.888-0.512l-42.208-26.912a11.104 11.104 0 0 0-5.664-1.632 4.16 4.16 0 0 0-1.504 0.192l-17.92 17.984a17.28 17.28 0 0 0 2.816 7.68l25.824 43.04a3.392 3.392 0 0 1 0.16 3.392l-5.216 10.528a136.576 136.576 0 0 0-8 19.392l-3.68 11.808a3.744 3.744 0 0 1-2.656 2.368l-46.4 10.272-1.024 0.192c-2.944 0.544-5.664 3.104-5.984 4l0.064 25.408c0.928 0.896 3.52 2.56 7.328 3.424l46.72 11.648a3.776 3.776 0 0 1 2.528 2.336l3.648 11.328c1.984 5.984 4.416 11.808 7.424 17.952l5.216 10.528a3.296 3.296 0 0 1-0.128 3.424l-25.6 42.592a20.32 20.32 0 0 0-3.072 8.096l18.24 18.208c-0.032-0.032 0-0.096 0.096-0.096 0.256 0 0.672 0.096 1.056 0.096a10.624 10.624 0 0 0 5.664-1.664l42.304-26.976a3.584 3.584 0 0 1 3.552-0.16l10.976 5.856c7.328 3.808 14.752 6.944 22.144 9.28l11.328 3.616a3.584 3.584 0 0 1 2.432 2.56l11.424 45.824a19.2 19.2 0 0 0 3.552 7.84h25.856v-0.032z m-13.472-99.936a89.472 89.472 0 0 1-89.408-89.344 89.44 89.44 0 0 1 178.912 0 89.472 89.472 0 0 1-89.504 89.344z m0.224-150.048a61.152 61.152 0 0 0-61.216 60.96 61.184 61.184 0 0 0 122.4 0 61.12 61.12 0 0 0-61.184-60.96z m-249.088 266.016h-400a151.616 151.616 0 0 1-151.456-151.488V234.272a151.616 151.616 0 0 1 151.456-151.488h663.264a151.648 151.648 0 0 1 151.424 151.488v232.832a20.096 20.096 0 1 1-40.224 0V234.272a111.36 111.36 0 0 0-111.232-111.2H154.496a111.36 111.36 0 0 0-111.2 111.2v542.88a111.296 111.296 0 0 0 111.2 111.2h400a20.16 20.16 0 0 1 0 40.32z m-188.544-368.608a172.32 172.32 0 0 1-172.096-172.16 172.288 172.288 0 0 1 172.096-172.096 172.32 172.32 0 0 1 172.128 172.096 172.384 172.384 0 0 1-172.128 172.16z m0-304.032a132.032 132.032 0 0 0-131.872 131.872c0 72.704 59.168 131.84 131.872 131.84s131.872-59.136 131.872-131.84a132.032 132.032 0 0 0-131.872-131.872zM130.496 795.712a20.16 20.16 0 0 1-20.128-20.192c0-140.928 114.656-255.552 255.584-255.552a253.664 253.664 0 0 1 204.64 102.4 20.128 20.128 0 0 1-32.192 24.16 213.76 213.76 0 0 0-172.416-86.304 215.616 215.616 0 0 0-215.328 215.328 20.192 20.192 0 0 1-20.16 20.16z m716.832-456.096h-194.688a20.16 20.16 0 1 1 0-40.288h194.688a20.128 20.128 0 0 1 0 40.288z m0 127.552h-194.688a20.128 20.128 0 1 1 0-40.288h194.688a20.096 20.096 0 0 1 0 40.288z" p-id="19186" fill="#1d1d1f"></path></svg>