<svg t="1636382285061" class="icon" viewBox="0 0 1024 1024" version="1.1" xmlns="http://www.w3.org/2000/svg" p-id="3373" width="200" height="200"><path d="M0 0h1024v1024H0V0z" fill="#202425" opacity=".01" p-id="3374"></path><path d="M682.666667 204.8h238.933333a34.133333 34.133333 0 0 1 34.133333 34.133333v648.533334a68.266667 68.266667 0 0 1-68.266666 68.266666h-204.8V204.8z" fill="#FFAA44" p-id="3375"></path><path d="M68.266667 921.6a34.133333 34.133333 0 0 0 34.133333 34.133333h785.066667a68.266667 68.266667 0 0 1-68.266667-68.266666V102.4a34.133333 34.133333 0 0 0-34.133333-34.133333H102.4a34.133333 34.133333 0 0 0-34.133333 34.133333v819.2z" fill="#11AA66" p-id="3376"></path><path d="M238.933333 307.2a34.133333 34.133333 0 0 0 0 68.266667h136.533334a34.133333 34.133333 0 1 0 0-68.266667H238.933333z m0 204.8a34.133333 34.133333 0 1 0 0 68.266667h409.6a34.133333 34.133333 0 1 0 0-68.266667H238.933333z m0 204.8a34.133333 34.133333 0 1 0 0 68.266667h204.8a34.133333 34.133333 0 1 0 0-68.266667H238.933333z" fill="#FFFFFF" p-id="3377"></path></svg>